<?xml version="1.0" encoding="UTF-8"?><!DOCTYPE svg PUBLIC "-//W3C//DTD SVG 1.1//EN" "http://www.w3.org/Graphics/SVG/1.1/DTD/svg11.dtd"><svg xmlns="http://www.w3.org/2000/svg"><symbol id="shape-twitter" viewBox="0 0 90.601 73.629"><path d="M90.6 8.716c-3.332 1.48-6.915 2.477-10.675 2.927 3.837-2.3 6.785-5.943 8.172-10.285-3.59 2.13-7.568 3.677-11.803 4.51C72.904 2.26 68.072 0 62.727 0 52.46 0 44.14 8.32 44.14 18.588c0 1.456.162 2.874.48 4.235-15.45-.775-29.145-8.176-38.31-19.42-1.602 2.744-2.52 5.937-2.52 9.344 0 6.448 3.282 12.138 8.27 15.47-3.046-.095-5.912-.93-8.418-2.323-.003.077-.003.154-.003.233 0 9.006 6.407 16.52 14.91 18.226-1.56.426-3.202.652-4.897.652-1.2 0-2.363-.116-3.498-.333 2.365 7.384 9.23 12.758 17.363 12.908-6.36 4.985-14.375 7.958-23.085 7.958-1.5 0-2.98-.09-4.434-.26 8.225 5.272 17.996 8.35 28.492 8.35 34.19 0 52.886-28.323 52.886-52.886 0-.807-.018-1.607-.054-2.405 3.634-2.62 6.784-5.895 9.277-9.62z"/></symbol><symbol id="shape-search" viewBox="0 0 79.877 79.877"><path d="M55.767 9.568c-12.758-12.758-33.44-12.758-46.2 0-12.756 12.756-12.756 33.44 0 46.197C21.693 67.89 40.97 68.482 53.805 57.562c3.11 5.314 8.554 13.047 17.777 22.27 0 0 3.983.463 6.394-1.562l.036.035c.05-.05.08-.113.13-.166.05-.048.114-.08.164-.13l-.035-.035c2.024-2.41 1.56-6.393 1.56-6.393-9.222-9.225-16.952-14.668-22.27-17.777C68.483 40.97 67.89 21.69 55.768 9.568zM49.4 49.402c-9.226 9.227-24.24 9.227-33.47 0-9.227-9.23-9.227-24.244 0-33.47 9.23-9.23 24.244-9.228 33.47 0 9.23 9.228 9.23 24.242 0 33.47z"/></symbol></svg>